<svg xmlns="http://www.w3.org/2000/svg" width="149.75" height="34.094" viewBox="0 0 149.75 34.094"><path data-name="Shape 656 copy 8" d="M148.92 9.351a28.619 28.619 0 0 1-2.3-9.35c-.04.013-6.16 1.163-6.16 1.163-2.14 6.292-5.96 11.691-10.41 14.888.02-.059.2-.5.38-.947a18.867 18.867 0 0 0 .92-3.654 20.406 20.406 0 0 0 .32-3.428 8.911 8.911 0 0 0-1.61-5.606 5.391 5.391 0 0 0-4.41-2.063 10.715 10.715 0 0 0-4.95 1.461 12.6 12.6 0 0 0-2.49 1.987 4.546 4.546 0 0 0 0-.908c-.03-.363-.07-.727-.13-1.089s-.13-.7-.21-1.022a2.45 2.45 0 0 0-.25-.7l-5.6 2.224a8.6 8.6 0 0 1 .43 2.428 13.33 13.33 0 0 1-.34 3.337l-1.67 7.9a3.451 3.451 0 0 1-.8 1.6v.008a7.773 7.773 0 0 1-1.22 1.116 8.381 8.381 0 0 1-1.4.841 3.344 3.344 0 0 1-1.44.341 1.364 1.364 0 0 1-.99-.5c-.45-.476-.61-2.069-.34-3.515L107.57.132l-6.09 1.229-2.96 14.059a5.075 5.075 0 0 1-1.12 2.239l-.02.012a7.647 7.647 0 0 1-1.21 1.115 8.388 8.388 0 0 1-1.4.842 3.344 3.344 0 0 1-1.44.341 1.32 1.32 0 0 1-.99-.5 1.836 1.836 0 0 1-.45-1.275 10.211 10.211 0 0 1 .11-1.365 17.293 17.293 0 0 1 .34-1.774L95.49.086l-6.22 1.135-3.1 14.889c-.09.386-.15.743-.21 1.074-.07.145-.13.279-.2.423a7.589 7.589 0 0 1-1.19 1.089 8.381 8.381 0 0 1-1.4.841 3.344 3.344 0 0 1-1.44.341 1.32 1.32 0 0 1-.99-.5 1.834 1.834 0 0 1-.45-1.275 10.223 10.223 0 0 1 .11-1.365 15.422 15.422 0 0 1 .31-1.817l1.55-7.436c.24-1.028.49-2.049.74-3.063s.5-1.869.74-2.565A8.8 8.8 0 0 0 80.19.563a28.255 28.255 0 0 0-4.8-.386 13.582 13.582 0 0 0-5.49 1A12.712 12.712 0 0 0 65.93 3.9a16.62 16.62 0 0 1-2.71 2.488 18.091 18.091 0 0 1-3.73 1.926c0-.048.01-.1.01-.145a7.65 7.65 0 0 0-2.21-5.9A8.741 8.741 0 0 0 51.12.226a11.6 11.6 0 0 0-5.43 1.271 12.771 12.771 0 0 0-4.19 3.45 16.454 16.454 0 0 0-2.71 5.084 19.557 19.557 0 0 0-.97 6.173 11.461 11.461 0 0 0 .1 1.471 8.568 8.568 0 0 1-1.07.966 4.178 4.178 0 0 1-2.46.958 1.864 1.864 0 0 1-1.15-.273 1.324 1.324 0 0 1-.33-1.049 10.348 10.348 0 0 1 .27-2.007l1.45-6.921.24-1.143q.18-.862.27-1.612a12 12 0 0 0 .09-1.43 4.538 4.538 0 0 0-1.35-3.7A5.006 5.006 0 0 0 30.6.351a9.371 9.371 0 0 0-3.7.772 11.835 11.835 0 0 0-3.7 2.679 3.446 3.446 0 0 0-1.33-2.634 4.837 4.837 0 0 0-2.89-.817 10.133 10.133 0 0 0-7.23 3.337 4.088 4.088 0 0 0-1.29-2.066A6.186 6.186 0 0 0 6.29.351a7.9 7.9 0 0 0-3.69.863c-.32.163-.62.335-.92.516a1.419 1.419 0 0 0-.65.914L-.01 7.507c.09-.107.17-.21.26-.319a7.767 7.767 0 0 1 1.22-1.115 8.315 8.315 0 0 1 1.4-.841 3.329 3.329 0 0 1 1.44-.341 1.317 1.317 0 0 1 .99.5 1.832 1.832 0 0 1 .45 1.274 10.757 10.757 0 0 1-.13 1.463l-.03.208-3.34 15.756h5.86l2.81-13.4a7.462 7.462 0 0 1 2.84-4.435 4.1 4.1 0 0 1 2.41-.912 1.788 1.788 0 0 1 1.11.274 1.253 1.253 0 0 1 .34 1 10.1 10.1 0 0 1-.32 2.28l-3.2 15.19h5.63l2.87-13.635a6.9 6.9 0 0 1 2.63-4.135l.02-.019a4.185 4.185 0 0 1 2.46-.958 1.863 1.863 0 0 1 1.15.274 1.32 1.32 0 0 1 .33 1.048 10.346 10.346 0 0 1-.27 2.008l-.68 3.324-1.01 4.74q-.18.861-.27 1.612a11.981 11.981 0 0 0-.09 1.429 4.537 4.537 0 0 0 1.35 3.7 5.009 5.009 0 0 0 3.29 1.113 9.442 9.442 0 0 0 3.7-.771 12.624 12.624 0 0 0 3.8-2.576c.21.277.71.842.93 1.064a8.254 8.254 0 0 0 6.09 2.11 12.256 12.256 0 0 0 5.96-1.384 12.513 12.513 0 0 0 4.22-3.677 16.131 16.131 0 0 0 2.48-5.2c.2-.723.35-1.454.48-2.193a23.157 23.157 0 0 0 2.82-.874 20.617 20.617 0 0 0-.82 5.744q0 4.084 1.68 5.878a6.621 6.621 0 0 0 5.05 1.793 7.638 7.638 0 0 0 3.01-.726 9.9 9.9 0 0 0 2.78-1.771 14.152 14.152 0 0 0-.49 1.521c-.18.651-.32 1.2-.41 1.657l-1.84 8.806 6.1-1.543 1.69-8.088a10.011 10.011 0 0 0 1.01.053 7.913 7.913 0 0 0 3.69-.862 14.328 14.328 0 0 0 2.66-1.778 3.981 3.981 0 0 0 1.08 1.46 6.168 6.168 0 0 0 4.17 1.271 7.9 7.9 0 0 0 3.69-.863 25.224 25.224 0 0 0 3.19-2.292 3.981 3.981 0 0 0 1.2 1.793 6.186 6.186 0 0 0 4.17 1.271 7.913 7.913 0 0 0 3.69-.862 13.746 13.746 0 0 0 1.78-1.092l-2.45 11.624 6.13-1.544 4.64-21.8a7.113 7.113 0 0 1 2.38-4.082 5.733 5.733 0 0 1 .69-.489 5.089 5.089 0 0 1 2.53-.822 1.9 1.9 0 0 1 1.67.686 3.7 3.7 0 0 1 .47 2.1 17.318 17.318 0 0 1-.18 2.285 24.539 24.539 0 0 1-.52 2.694 22.032 22.032 0 0 1-.85 2.672 11.146 11.146 0 0 1-1.14 2.261 5.106 5.106 0 0 1-1.41 1.416 3.157 3.157 0 0 1-.97.431.892.892 0 0 0-.08.021 5.4 5.4 0 0 1-2.22.049l-.95 4.443a13.376 13.376 0 0 0 2.39.189 10.629 10.629 0 0 0 1.89-.169 24.7 24.7 0 0 0 3.92-.921 30.534 30.534 0 0 0 17.5-15.088c2.75 6.918.87 9.144.46 9.758a4.579 4.579 0 0 1-1.64 1.368 5.166 5.166 0 0 1-2.41.508 5.34 5.34 0 0 1-.98-.1l-.71 3.311c-.06.325-.13.654-.21.995l-.03.138a13.436 13.436 0 0 0 2.43.2 10.447 10.447 0 0 0 4.41-.832 9.93 9.93 0 0 0 3.62-2.566c2.52-3.131 2.93-8.236 1.47-11.844zm-97.44 6.514a9.762 9.762 0 0 1-1.89 3.027A3.461 3.461 0 0 1 47 20.098a2.81 2.81 0 0 1-2.09-.773 3.347 3.347 0 0 1-.78-2.459 19.745 19.745 0 0 1 .37-3.391 21.389 21.389 0 0 1 1.1-3.971c.94 2.263 3.73 3.168 6.86 3.243a19.53 19.53 0 0 1-.98 3.118zm1.47-6.408a11.358 11.358 0 0 1-1.51-.159c-2.13-.393-3.12-1.294-3.42-2.17a1.721 1.721 0 0 1 .76-2.041h.01a3.087 3.087 0 0 1 1.4-.327 2.889 2.889 0 0 1 2.09.706 3.848 3.848 0 0 1 .73 2.755c0 .393-.02.811-.06 1.236zm21.58 7.068a8.6 8.6 0 0 1-2.18 2.565 3.89 3.89 0 0 1-2.28.871 2.384 2.384 0 0 1-1.75-.756 4.289 4.289 0 0 1-.84-2.817 15.871 15.871 0 0 1 .11-2.36 19.943 19.943 0 0 1 .57-2.886 14.792 14.792 0 0 1 1.09-2.817 6.758 6.758 0 0 1 1.69-2.152 5.9 5.9 0 0 1 1.43-.848 4.117 4.117 0 0 1 1.66-.389c.7 0 1.26.015 1.7.046a4.363 4.363 0 0 1 1.26.274z" fill="#29323d" fill-rule="evenodd"/></svg>